# xmcd
#
# Track frame offsets: 
#        150
#        29041
#        43048
#        62625
#        104100
#        127421
#        150825
#        173919
#        194354
#
# Disc length: 2910 seconds
#
# Revision: 0
# Processed by: cddbd v1.5.2PL0 Copyright (c) Steve Scherf et al.
# Submitted via: ExactAudioCopy v0.99pb5
#
DISCID=820b5c09
DTITLE=Hofkapelle München, Rüdiger Lotter - J. S. Bach- Brandenburgisc
DTITLE=he Konzerte Nr. 1-6 CD 2
DYEAR=2013
DGENRE=Classical
TTITLE0=Brandenburgisches Konzert Nr. 4 G-Dur - I. Allegro
TTITLE1=Brandenburgisches Konzert Nr. 4 G-Dur - II. Andante
TTITLE2=Brandenburgisches Konzert Nr. 4 G-Dur - III. Presto
TTITLE3=Brandenburgisches Konzert Nr. 5 D-Dur - I. Allegro
TTITLE4=Brandenburgisches Konzert Nr. 5 D-Dur - II. Affettuoso
TTITLE5=Brandenburgisches Konzert Nr. 5 D-Dur - III. Allegro
TTITLE6=Brandenburgisches Konzert Nr. 6 B-Dur - I.
TTITLE7=Brandenburgisches Konzert Nr. 6 B-Dur - Adagio ma non tanto
TTITLE8=Brandenburgisches Konzert Nr. 6 B-Dur - III. Allegro
EXTD=
EXTT0=
EXTT1=
EXTT2=
EXTT3=
EXTT4=
EXTT5=
EXTT6=
EXTT7=
EXTT8=
PLAYORDER=
